<?xml version="1.0" encoding="UTF-8" standalone="no"?>
<!-- Created with Inkscape (http://www.inkscape.org/) -->

<svg
   width="210mm"
   height="297mm"
   viewBox="0 0 210 297"
   version="1.1"
   id="svg1"
   xml:space="preserve"
   sodipodi:docname="ghost.svg"
   inkscape:version="1.3 (0e150ed6c4, 2023-07-21)"
   xmlns:inkscape="http://www.inkscape.org/namespaces/inkscape"
   xmlns:sodipodi="http://sodipodi.sourceforge.net/DTD/sodipodi-0.dtd"
   xmlns="http://www.w3.org/2000/svg"
   xmlns:svg="http://www.w3.org/2000/svg"><sodipodi:namedview
     id="namedview1"
     pagecolor="#505050"
     bordercolor="#eeeeee"
     borderopacity="1"
     inkscape:showpageshadow="0"
     inkscape:pageopacity="0"
     inkscape:pagecheckerboard="0"
     inkscape:deskcolor="#505050"
     inkscape:document-units="mm"
     inkscape:zoom="0.17727627"
     inkscape:cx="1274.8463"
     inkscape:cy="476.65715"
     inkscape:window-width="1366"
     inkscape:window-height="705"
     inkscape:window-x="-8"
     inkscape:window-y="-8"
     inkscape:window-maximized="1"
     inkscape:current-layer="layer1" /><defs
     id="defs1" /><g
     inkscape:label="Layer 1"
     inkscape:groupmode="layer"
     id="layer1"><path
       style="fill:#6f736a"
       d="m 123.28611,230.19011 c 0.10048,-84.90294 -0.0847,-149.428631 -0.4297,-149.714945 -0.30525,-0.253334 -14.2242,-0.299699 -64.339999,-0.214321 -56.7169055,0.09662 -63.9504831,0.06405 -63.9504831,-0.287929 0,-0.351504 7.3333793,-0.404499 64.1461741,-0.46356 50.914218,-0.05293 64.189428,-0.134796 64.355838,-0.396875 0.28346,-0.446396 0.26597,-2.093337 -0.0271,-2.556397 -0.20335,-0.321256 -9.29764,-0.358645 -64.355841,-0.264584 -56.866981,0.09715 -64.1190211,0.06465 -64.1190211,-0.287335 0,-0.351503 7.3333793,-0.404498 64.1461741,-0.463559 50.914218,-0.05293 64.189428,-0.134796 64.355838,-0.396875 0.35009,-0.55132 0.24836,-2.753553 -0.14216,-3.077657 -0.48576,-0.403144 -40.362047,-0.379258 -40.848918,0.02447 -0.181901,0.150837 -0.33073,0.798553 -0.33073,1.439369 v 1.165119 l -4.034895,-0.07304 -4.034896,-0.07304 -0.08064,-1.256771 c -0.04696,-0.731876 -0.212718,-1.268723 -0.396875,-1.285389 -0.173927,-0.01574 -17.87795,-0.0455 -39.342272,-0.06614 C 8.0910304,71.915874 -5.1919727,71.813221 -5.2356597,71.638539 -5.279442,71.463477 8.0799308,71.329196 34.248714,71.241664 l 39.550545,-0.132291 0.303589,0.732961 c 1.001415,2.417743 4.229214,2.952114 5.892419,0.975507 2.913768,-3.462816 -2.167385,-7.598347 -5.18386,-4.219125 l -0.9816,1.099644 -0.158815,-0.749702 c -0.552284,-2.607116 -0.775334,-2.469494 4.002406,-2.469494 3.069008,0 4.078645,0.08151 4.096717,0.330729 0.01319,0.181901 0.04295,1.223698 0.06614,2.315105 l 0.04216,1.984375 20.488575,0.06779 c 16.21082,0.05364 20.53514,-0.0016 20.71158,-0.264583 0.12266,-0.182806 0.20623,-1.10628 0.18573,-2.052166 -0.0205,-0.945885 -0.0241,-1.86862 -0.008,-2.050521 0.0432,-0.486583 126.13446,-0.486583 126.27343,0 0.052,0.181901 0.0349,18.42823 -0.0378,40.547397 -0.0728,22.11917 -0.0996,53.87909 -0.0597,70.57761 l 0.0726,30.36094 h 3.03398 c 2.74744,0 3.06519,0.05 3.36445,0.52916 0.32926,0.52723 0.61702,0.52917 78.58349,0.52917 h 78.25302 l 0.008,-30.22865 c 0.0179,-71.16448 -0.032,-99.554658 -0.17603,-100.128428 l -0.15352,-0.611678 h -17.3809 c -13.1657,0 -17.4579,-0.077 -17.6984,-0.3175 -0.33534,-0.335336 -0.47585,-10.339062 -0.1569,-11.170235 0.14488,-0.377562 2.61738,-0.418515 25.26771,-0.418515 h 25.1071 V 148.5 230.52084 H 275.42112 c -121.53214,0 -152.13533,-0.0665 -152.13501,-0.33073 z m 122.10481,-15.27969 v -1.98438 l -3.96875,-0.0397 c -6.34801,-0.0634 -6.84446,-0.0832 -6.66215,-0.26555 0.0951,-0.0951 2.42622,-0.147 5.18026,-0.11533 4.63851,0.0533 5.01717,0.0222 5.14082,-0.4224 0.0734,-0.26398 0.17315,-3.45654 0.22164,-7.09456 l 0.0882,-6.61458 H 201.07321 156.7555 l -0.0697,8.99408 c -0.0384,4.94675 -0.0122,9.14405 0.0581,9.32734 0.10226,0.26648 8.99581,0.31985 44.38745,0.26633 l 44.25957,-0.0669 z M 237.718,144.13437 v -35.71875 h -35.98333 -35.98333 l -0.068,35.45417 c -0.0374,19.49979 -0.0112,35.60342 0.0582,35.78585 0.10049,0.26405 7.45056,0.318 36.05135,0.26458 l 35.92513,-0.0671 z m -61.80596,-5.05811 c -0.14387,-0.17335 -0.21664,-4.38645 -0.17594,-10.18646 l 0.0694,-9.89084 h 10.05417 10.05417 l 0.18724,9.91984 c 0.10298,5.45591 0.0912,10.01588 -0.0262,10.13326 -0.34923,0.34923 -19.87368,0.37265 -20.16286,0.0242 z m 61.01221,-52.35647 v -4.233334 h -4.10104 -4.10104 l -0.0735,3.957127 c -0.0959,5.160903 -0.55037,4.669146 4.23507,4.582608 l 4.04054,-0.07307 z M 3.1525549,228.86719 C 2.982502,217.0086 3.0117776,166.26475 3.1886091,166.37404 c 0.1397339,0.0864 0.2330524,-1.10742 0.2222638,-2.84332 -0.01165,-1.87457 -0.1015925,-2.79453 -0.2408033,-2.46301 -0.1461641,0.34808 -0.2315644,-0.24046 -0.2495507,-1.71979 -0.015039,-1.23693 -0.041515,-2.96334 -0.058836,-3.83646 -0.017321,-0.87313 0.010315,-5.5761 0.061413,-10.45104 0.090791,-8.66184 0.096293,-8.74011 0.2417902,-3.43959 l 0.1488853,5.42396 0.057849,-7.58472 c 0.031817,-4.1716 -0.042955,-7.62441 -0.1661605,-7.67292 -0.1232053,-0.0485 -0.2951513,-0.7045 -0.3821022,-1.45778 l -0.1580926,-1.36958 14.8233739,-0.0856 c 13.754195,-0.0794 14.847783,-0.11903 15.16179,-0.54865 1.164986,-1.59393 1.475165,-0.16662 1.433682,6.59719 -0.0324,5.28351 -0.064,5.70656 -0.253232,3.39083 -0.230794,-2.82433 -0.709791,-6.01145 -1.03388,-6.87917 -0.387301,-1.03696 -0.593857,5.8171 -0.475175,15.76754 0.06577,5.51392 0.170093,10.06961 0.231838,10.12377 0.538828,0.47264 1.616226,0.59847 4.345597,0.50753 1.74625,-0.0582 3.413125,-0.0864 3.704167,-0.0627 0.291042,0.0237 4.458229,0.0198 9.260416,-0.009 4.802187,-0.0284 9.326562,-0.0439 10.054166,-0.0346 2.504551,0.0323 26.461325,0.0823 28.574999,0.0597 1.164167,-0.0125 7.414948,-0.007 13.890623,0.0122 13.66402,0.0405 15.53303,-0.0645 16.20904,-0.91044 1.22497,-1.53292 1.25595,-1.04153 1.22169,19.3769 -0.031,18.48965 -0.10109,19.77519 -0.78814,14.46118 -0.60892,-4.70974 -0.84363,-1.90155 -0.84745,10.1391 -0.004,11.93778 0.15229,14.20056 0.77708,11.26634 0.18591,-0.87312 0.35509,-2.24234 0.37594,-3.0427 0.14762,-5.66511 0.46055,-1.03396 0.45589,6.74687 l -0.006,9.525 -0.48218,-3.96875 c -0.2652,-2.18281 -0.4889,-4.00554 -0.49709,-4.05051 -0.008,-0.045 -0.13398,-0.008 -0.2795,0.0818 -0.15615,0.0965 -0.26523,1.70228 -0.26617,3.91822 -0.002,4.65687 -0.26162,8.16488 -0.5961,8.05339 -0.15313,-0.0511 -0.24368,-2.66547 -0.22895,-6.61036 0.0275,-7.35529 0.15396,-6.94236 -2.12785,-6.94622 -1.57694,-0.003 -1.98386,-0.1654 -1.67265,-0.66896 0.12104,-0.19584 0.81464,-0.27305 1.94068,-0.21604 l 1.75233,0.0887 0.004,-13.89063 0.004,-13.89062 -2.77813,-0.31386 c -3.28198,-0.37078 -6.02865,-0.38891 -6.24355,-0.0412 -0.0955,0.15443 -0.2698,0.15471 -0.46073,7.3e-4 -0.27162,-0.21906 -13.190442,-0.17873 -15.388423,0.048 -0.436563,0.045 -1.109696,0.10262 -1.495852,0.12795 -1.824365,0.11966 -3.246935,2.60255 -2.171799,3.79056 0.326253,0.36051 0.360404,0.56684 0.138148,0.83464 -0.322175,0.3882 -0.401106,1.77487 -0.248651,4.3683 0.05404,0.91928 0.01542,1.72261 -0.08581,1.78517 -0.101236,0.0626 -0.12409,0.91778 -0.05079,1.90047 0.123664,1.65781 0.153775,3.55798 0.111116,7.01222 -0.02434,1.97102 0.06995,3.03395 0.288598,3.25329 0.104021,0.10435 0.07137,0.40975 -0.07255,0.67867 -0.301256,0.56291 -0.05821,1.7866 0.457214,2.30203 0.193736,0.19373 0.352248,0.51853 0.352248,0.72177 0,0.20324 0.327422,0.54716 0.727604,0.76426 0.400182,0.2171 0.619854,0.3995 0.48816,0.40533 -0.131695,0.006 -0.01429,0.25938 0.260899,0.56346 0.499916,0.5524 0.499555,0.55273 -0.422014,0.38504 -0.840086,-0.15287 -0.967079,-0.0901 -1.423744,0.7039 -0.738012,1.28314 -0.929812,6.98686 -0.388216,11.54468 0.164345,1.38305 -0.820555,1.63018 -6.496787,1.63018 -3.13693,0 -3.846241,-0.0747 -4.394842,-0.46302 -0.700939,-0.49612 -4.905256,-0.66266 -6.408872,-0.25388 -0.863126,0.23465 -1.09171,-1.26245 -0.31183,-2.04233 0.997207,-0.99721 6.463393,-0.4378 6.463393,0.66146 0,0.13512 0.246033,0.24568 0.54674,0.24568 0.811024,0 0.574958,-1.25741 -0.367635,-1.95821 -2.772757,-2.06149 -8.645772,-0.61512 -8.645772,2.12924 v 1.4469 l -1.12375,-0.0814 -1.12375,-0.0814 -0.319108,-1.71979 c -0.899811,-4.84942 0.165516,-8.63063 2.65415,-9.42049 0.786803,-0.24973 -0.01595,-0.62739 -1.001123,-0.47099 -4.796209,0.7614 -5.768796,2.07219 -6.123186,8.25247 -0.09759,1.70182 -0.295219,3.24305 -0.439185,3.42495 -0.485014,0.61281 -10.848159,0.45748 -11.417043,-0.17113 -0.683701,-0.75549 -2.640414,-1.1334 -5.445557,-1.05176 -2.502509,0.0728 -2.516655,0.0697 -2.516655,-0.5637 0,-0.85405 0.620464,-0.99895 4.416156,-1.03131 2.957949,-0.0252 3.80526,-0.24517 3.215695,-0.83473 -0.128196,-0.1282 -2.195462,-0.26665 -4.593925,-0.30768 l -4.360842,-0.0746 -0.07753,2.06455 -0.07753,2.06456 -1.245389,-0.0802 -1.245389,-0.0802 -0.302171,-1.71979 c -0.843654,-4.80162 -0.233256,-7.62249 1.948851,-9.00634 1.407287,-0.89248 1.225231,-1.05472 -0.857919,-0.76457 -4.335118,0.60381 -5.308873,2.14906 -5.847093,9.27875 -0.21728,2.87826 0.437625,2.64764 -7.244792,2.55124 l -5.953125,-0.0747 -0.132292,-1.98437 c -0.185255,-2.77883 -0.597661,-2.79397 -4.106276,-0.1508 -4.94536,3.72553 -6.4276281,3.11156 -6.6623731,-2.75962 l -0.1322342,-3.30729 0.8513113,-1.26605 c 0.468222,-0.69632 1.22428,-1.47023 1.68013,-1.71979 l 0.828818,-0.45374 -1.134967,-0.0819 c -4.2849807,-0.3091 -5.8221343,1.61567 -6.4044067,8.01937 -0.3505444,3.8552 -1.8194584,6.19877 -1.8656652,2.97656 z m 7.8416141,-17.20772 c -1.693511,-1.60146 -1.7883636,-2.12451 -1.1659397,-6.42941 0.2645257,-1.82955 0.2434357,-2.6355 -0.1353688,-5.1731 -0.9075145,-6.07942 -0.6098614,-7.90389 1.6267045,-9.97095 l 1.238029,-1.1442 -1.322917,0.16569 c -4.8285781,0.60472 -5.5596743,1.55269 -6.2282928,8.07583 -1.1085854,10.81554 0.9232964,15.70843 6.5830968,15.8525 l 0.88397,0.0225 z m 30.006132,1.15942 c 0,-0.13169 -0.519452,-0.54386 -1.154337,-0.91593 -1.488706,-0.87244 -1.87046,-1.78208 -1.652362,-3.93724 0.420533,-4.15555 0.469047,-6.08146 0.193109,-7.66601 -1.08366,-6.22284 -0.455667,-9.26447 2.214511,-10.72579 1.676126,-0.91731 -2.585229,-0.4415 -4.417457,0.49323 -3.873116,1.97592 -3.844478,19.94398 0.03494,21.92311 1.717943,0.87643 4.781594,1.40735 4.781594,0.82863 z m 28.574999,0.0373 c 0,-0.11117 -0.475927,-0.49626 -1.057615,-0.85576 -1.838855,-1.13648 -2.053552,-1.99186 -1.540403,-6.13719 0.257081,-2.07676 0.248335,-3.08378 -0.04596,-5.29167 -0.912644,-6.84694 -0.579702,-8.99816 1.617697,-10.45233 1.708685,-1.13076 1.409334,-1.33596 -1.240231,-0.85016 -1.89901,0.34818 -3.329174,1.10567 -3.874598,2.05219 -1.749933,3.03681 -1.76982,15.9265 -0.02996,19.41935 0.662157,1.3293 6.171071,3.21788 6.171071,2.11557 z M 49.969201,204.7491 c 0.642277,-0.58214 0.770982,-2.46636 0.227871,-3.33602 -0.261248,-0.41833 -0.261248,-0.63283 0,-1.05115 1.485115,-2.37805 -0.189419,-3.70776 -4.669265,-3.70776 -4.327424,0 -4.582513,0.16942 -4.521455,3.00304 0.02242,1.04046 -0.04259,2.27718 -0.144469,2.74826 -0.224347,1.03738 -0.01085,1.99913 0.573489,2.58347 0.679744,0.67975 7.738107,0.48137 8.533829,-0.23984 z m 28.281158,0.0265 c 1.288209,-1.16771 1.064905,-6.77836 -0.302976,-7.61245 -4.180919,-2.54938 -11.079578,1.04092 -7.971732,4.14877 0.691377,0.69137 6.046066,0.88815 7.338711,0.26968 0.634228,-0.30345 0.655003,1.56565 0.02514,2.26164 -1.064657,1.17643 -6.441284,0.47606 -6.441284,-0.83906 0,-0.38799 -1.317318,-0.32365 -1.354265,0.0661 -0.06673,0.70405 0.09832,1.14724 0.647698,1.7391 0.767245,0.82658 7.139019,0.79984 8.05871,-0.0338 z M 16.610345,184.78336 c 0.254073,-0.1611 0.135037,-0.30949 -0.439033,-0.54728 -2.370385,-0.98184 -4.870421,-7.2745 -3.150697,-7.93039 0.327421,-0.12488 1.131093,-1.07138 1.785937,-2.10335 1.468471,-2.31415 1.544524,-2.31897 1.641557,-0.1039 0.157637,3.59854 1.136568,2.51607 1.136568,-1.25677 v -3.04271 l -0.707247,-0.0818 c -0.592623,-0.0685 -0.892793,0.16594 -1.852084,1.44653 -1.663412,2.22055 -2.039843,2.56224 -2.448814,2.22282 -0.759762,-0.63055 -0.01014,-7.53542 1.003152,-9.24014 0.310976,-0.52317 0.684472,-1.30232 0.829993,-1.73144 0.174271,-0.5139 0.650315,-0.98338 1.394636,-1.37541 1.33425,-0.70274 1.260867,-0.77673 -1.004014,-1.01227 -7.9812216,-0.83001 -10.1691459,1.78456 -10.1697878,12.15292 -6.854e-4,11.07096 1.1681785,12.71151 9.1177078,12.79712 1.382448,0.0149 2.670405,-0.0724 2.862126,-0.19397 z m 28.47508,0.0663 c 0.423062,-0.16235 -0.590631,-1.42471 -1.144058,-1.42471 -1.20502,0 -2.941066,-5.00507 -2.941066,-8.47918 0,-0.52985 0.05733,-0.51125 0.767612,0.24912 1.265712,1.35495 1.75046,1.11797 3.598013,-1.75898 1.335473,-2.07955 1.415293,-2.06551 1.509763,0.2656 0.143341,3.53707 0.871487,2.59755 0.871487,-1.12448 v -3.0427 l -0.672498,-0.0784 c -0.572172,-0.0667 -0.901385,0.2413 -2.20678,2.06458 -1.717876,2.39942 -1.843636,2.43106 -2.898267,0.72926 -1.305681,-2.10692 -1.134258,-6.44029 0.328324,-8.29966 0.304936,-0.38767 0.558216,-0.89715 0.562844,-1.13219 0.01141,-0.57951 0.508346,-1.14177 1.429982,-1.61796 2.074412,-1.07179 -1.203469,-1.70044 -5.066935,-0.97175 -3.98751,0.75207 -5.082482,1.9894 -5.761555,6.51059 -1.117077,7.43738 0.08008,15.62891 2.489505,17.03438 1.615334,0.94227 7.63465,1.6517 9.133629,1.07649 z m 28.561163,0.005 c 0.307132,-0.11786 0.07956,-0.419 -0.904402,-1.19678 -0.723142,-0.57161 -1.314803,-1.17598 -1.314803,-1.34304 0,-0.16706 -0.165026,-0.49171 -0.366723,-0.72145 -0.475701,-0.54184 -1.25687,-3.68727 -1.414239,-5.69453 l -0.123295,-1.57266 0.711065,0.84505 c 1.20284,1.4295 1.828473,1.14199 3.574442,-1.64262 1.179422,-1.88104 1.282215,-1.85828 1.376973,0.30486 0.157638,3.59854 1.136568,2.51608 1.136568,-1.25677 v -3.0427 l -0.694653,-0.0805 c -0.585411,-0.0679 -0.876674,0.17461 -1.852083,1.54195 -0.636587,0.89238 -1.40607,1.93026 -1.709962,2.3064 l -0.552533,0.6839 -1.034967,-1.67864 c -0.569233,-0.92325 -1.001265,-1.83001 -0.960073,-2.01501 0.04119,-0.185 0.182319,-1.0861 0.313616,-2.00243 0.669346,-4.67142 2.192109,-7.61918 3.935942,-7.61918 1.113508,0 -0.01891,-0.52271 -1.480182,-0.68324 -8.461431,-0.92952 -10.597483,1.891 -10.314468,13.61958 0.181216,7.50985 0.660484,9.10012 3.120842,10.3553 1.622395,0.82768 7.204053,1.41016 8.552935,0.89255 z m 29.001492,-0.041 c -7e-5,-0.10914 -0.59957,-0.71467 -1.33223,-1.34562 -1.431014,-1.23236 -2.185233,-2.56929 -2.636614,-4.67365 -0.15607,-0.7276 -0.344986,-1.52508 -0.419814,-1.77218 -0.09313,-0.30753 0.114616,-0.57889 0.658505,-0.86014 0.445196,-0.23022 1.352713,-1.25421 2.063983,-2.32886 l 1.26943,-1.91798 0.13229,1.85208 c 0.25603,3.5844 1.19063,2.6498 1.19063,-1.19063 v -3.0427 l -0.69156,-0.0803 c -0.59448,-0.069 -0.90929,0.21914 -2.24276,2.05259 -2.109354,2.90026 -2.907446,1.66485 -2.214242,-3.42755 0.531798,-3.90667 1.248049,-5.55735 2.895832,-6.67373 1.66068,-1.12512 1.20571,-1.51818 -1.764872,-1.52474 -6.484484,-0.0143 -8.261862,1.68373 -8.996872,8.59534 -0.802639,7.54756 0.367541,13.88989 2.82816,15.32851 1.535353,0.89766 9.260614,1.73984 9.260134,1.00951 z M 16.526344,155.92889 c 0.515632,-0.20155 0.514306,-0.21157 -0.05188,-0.39158 -0.823022,-0.26168 -2.450895,-1.77818 -2.583879,-2.4071 -0.06154,-0.29104 -0.356873,-1.18233 -0.656296,-1.98064 -1.01995,-2.71936 -1.103643,-2.64727 3.093616,-2.6645 4.518968,-0.0186 5.362479,-0.26263 5.828718,-1.68657 0.560015,-1.71034 -0.889006,-2.49598 -1.523852,-0.82621 -0.357524,0.94036 -5.970216,1.41464 -6.808138,0.5753 -0.278919,-0.27939 -0.268724,-5.08719 0.01138,-5.36776 0.630194,-0.63124 6.626994,-0.24174 6.789794,0.441 0.282571,1.18504 1.464427,0.91512 1.427031,-0.32591 -0.05614,-1.86314 -2.019234,-2.50222 -6.955981,-2.2645 -2.369421,0.11409 -2.667453,0.0799 -2.558503,-0.29387 0.06782,-0.23266 0.207878,-0.89926 0.311232,-1.48134 0.224961,-1.26696 0.787548,-2.67825 1.159204,-2.90794 0.147726,-0.0913 0.268592,-0.42756 0.268592,-0.74725 0,-0.44175 0.324035,-0.7299 1.350187,-1.20065 1.991859,-0.91379 1.40527,-1.22899 -2.219731,-1.19278 -7.2991222,0.0729 -8.9030487,2.30401 -8.9132827,12.39862 -0.00717,7.07648 0.9884422,10.51388 3.3475139,11.55741 2.029055,0.89755 7.1845928,1.35245 8.6842718,0.76627 z m 250.338526,43.17562 c -0.069,-0.11158 -0.12539,-1.97136 -0.12539,-4.13285 0,-4.75005 0.36357,-4.37182 -4.28853,-4.46142 l -3.83087,-0.0738 -0.11502,-11.1125 c -0.20076,-19.39438 -0.15784,-42.77774 0.083,-45.24375 0.12793,-1.30969 0.24699,-3.92906 0.26458,-5.82084 l 0.032,-3.43958 4.27383,-0.0592 c 5.04554,-0.0699 4.57102,-0.48567 4.74261,4.1554 0.1354,3.66252 0.47042,4.3159 0.57667,1.12469 0.0375,-1.12524 0.15653,-3.7723 0.26458,-5.88235 l 0.19647,-3.83646 h 6.74688 6.74687 l 0.0948,0.66146 c 0.0521,0.3638 0.01,3.29665 -0.0946,6.51745 l -0.18939,5.85598 -3.26847,0.10881 c -3.94551,0.13136 -3.60142,-0.19948 -3.75847,3.61371 -0.16395,3.98093 -1.69063,3.62672 15.0804,3.49881 l 2.04345,-0.0156 0.0732,-3.9026 0.0732,-3.90261 3.68594,-0.0562 c 2.02726,-0.0309 3.84421,-0.11697 4.03765,-0.1912 0.28668,-0.11001 0.33897,-2.30099 0.28281,-11.85002 l -0.0689,-11.71506 -4.10104,-0.13229 -4.10105,-0.13229 -0.13229,-3.96875 -0.13229,-3.96875 -7.73249,-0.0701 -7.73249,-0.0701 -0.0727,4.30347 -0.0727,4.30346 -4.17378,0.0729 -4.17377,0.0729 0.0727,-4.30623 0.0727,-4.30623 2.24896,-0.0227 c 1.23693,-0.0125 3.11216,-0.0423 4.16719,-0.0661 l 1.91823,-0.0434 v -1.455213 c 0,-1.667881 0.18718,-1.783167 1.03448,-0.637134 2.45006,3.313887 7.6524,0.402632 5.86788,-3.283697 -1.14716,-2.369709 -3.83852,-2.718909 -5.6154,-0.72859 -1.22963,1.377344 -1.25252,1.368875 -1.19932,-0.443809 l 0.0446,-1.521354 3.25548,-0.04334 c 4.38707,-0.0584 3.99351,0.351128 4.07957,-4.245099 l 0.0733,-3.913646 7.87971,-0.04104 c 9.72607,-0.05066 8.62715,0.484869 8.71576,-4.247392 l 0.0733,-3.913647 h 16.40417 16.40416 v 3.624498 c 0,4.688043 -0.86563,4.245848 8.38312,4.282372 l 7.75647,0.03063 -0.0697,2.645834 c -0.0383,1.455208 0.0212,3.224226 0.1323,3.931151 l 0.20198,1.285317 1.85208,-0.0387 c 1.01865,-0.02129 2.81022,-0.105175 3.98127,-0.186418 2.81194,-0.195082 2.98753,-0.0133 2.5449,2.63466 -0.18108,1.083298 -0.24274,2.606868 -0.14355,3.546973 0.0956,0.906389 0.0679,1.799357 -0.0617,1.984375 -0.3258,0.465309 -0.0455,8.555869 0.29363,8.476819 0.14552,-0.0339 0.32411,-0.79515 0.39687,-1.69163 l 0.13229,-1.62998 0.66146,1.03018 c 2.39725,3.73355 8.02593,1.07 6.10861,-2.89065 -1.14715,-2.36971 -3.83851,-2.71891 -5.61539,-0.72859 -1.24704,1.39683 -1.3285,1.36753 -1.23403,-0.44381 l 0.0793,-1.52136 2.24896,-0.0272 c 1.23693,-0.0149 2.93134,-0.12067 3.76536,-0.23495 2.49142,-0.341372 2.32011,-1.247307 2.31969,12.26691 l -3.6e-4,11.8077 4.11771,-0.085 c 5.50983,-0.11375 4.98423,-1.02449 4.74919,8.22926 -0.18435,7.25794 -0.16981,7.6469 0.29867,7.98944 0.46905,0.34296 0.49465,1.06198 0.53871,15.13194 0.0254,8.12453 0.0552,15.27788 0.0661,15.89634 l 0.0199,1.12448 h 3.93635 c 4.91196,0 4.56349,-0.38426 4.47104,4.93019 l -0.073,4.19794 -4.36562,0.13229 -4.36563,0.13229 -0.13229,4.23334 -0.13229,4.23333 -4.10104,0.13229 -4.10104,0.13229 -0.13229,3.96875 -0.1323,3.96875 -8.65819,0.0698 -8.65819,0.0697 -0.0731,-4.0385 -0.0731,-4.03851 -3.7638,-0.0734 -3.76379,-0.0734 -0.0727,-4.29225 -0.0727,-4.29226 h -3.96875 -3.96875 l -0.13229,4.23334 -0.13229,4.23333 -4.10105,0.13229 -4.10104,0.13229 -0.13229,3.96875 -0.13229,3.96875 -8.65819,0.0698 -8.6582,0.0697 -0.0731,-4.0385 -0.0731,-4.03851 -3.89608,-0.0732 -3.89609,-0.0732 -0.0727,-4.29244 -0.0727,-4.29245 h -3.96875 -3.96875 l -0.13229,4.23334 -0.13229,4.23333 -4.23334,0.13229 -4.23333,0.13229 -0.13229,4.23334 -0.13229,4.23333 -8.38263,0.0698 c -4.61044,0.0384 -8.43904,-0.0215 -8.508,-0.13304 z m 5.47762,-1.22765 c 3.68018,-1.53768 2.204,-6.96355 -1.75023,-6.43318 -1.9911,0.26706 -3.45295,2.43947 -2.85689,4.24554 0.66424,2.01268 2.70577,2.98207 4.60712,2.18764 z m 8.20208,0 c 3.68019,-1.53768 2.20401,-6.96355 -1.75023,-6.43318 -1.9911,0.26706 -3.45295,2.43947 -2.85689,4.24554 0.66424,2.01268 2.70577,2.98207 4.60712,2.18764 z m 33.86667,-0.52917 c 3.68018,-1.53768 2.204,-6.96355 -1.75023,-6.43318 -1.9911,0.26707 -3.45295,2.43948 -2.85689,4.24554 0.66424,2.01268 2.70576,2.98208 4.60712,2.18764 z m 8.46666,0 c 3.68019,-1.53768 2.20401,-6.96355 -1.75023,-6.43318 -1.99109,0.26707 -3.45294,2.43948 -2.85689,4.24554 0.66425,2.01268 2.70577,2.98208 4.60712,2.18764 z m 33.3375,0 c 3.68019,-1.53768 2.20401,-6.96355 -1.75023,-6.43318 -1.9911,0.26707 -3.45295,2.43948 -2.85689,4.24554 0.66424,2.01268 2.70577,2.98208 4.60712,2.18764 z m 8.46667,0 c 3.68018,-1.53768 2.204,-6.96355 -1.75023,-6.43318 -1.9911,0.26707 -3.45295,2.43948 -2.85689,4.24554 0.66424,2.01268 2.70576,2.98208 4.60712,2.18764 z m -100.54166,-8.20208 c 3.68018,-1.53768 2.204,-6.96355 -1.75023,-6.43318 -1.9911,0.26706 -3.45295,2.43947 -2.8569,4.24554 0.66425,2.01268 2.70577,2.98207 4.60713,2.18764 z m 8.20208,0 c 3.70527,-1.54816 2.20024,-6.96305 -1.78669,-6.42829 -3.27687,0.43952 -3.88993,5.09154 -0.84566,6.41702 1.0502,0.45725 1.55973,0.45943 2.63235,0.0113 z m 7.9375,0 c 3.68018,-1.53768 2.204,-6.96355 -1.75023,-6.43318 -1.75713,0.23568 -2.57947,1.26118 -2.57947,3.21674 0,2.8266 1.89446,4.23394 4.3297,3.21644 z m 8.99583,0 c 3.68019,-1.53768 2.20401,-6.96355 -1.75023,-6.43318 -1.9911,0.26706 -3.45295,2.43947 -2.85689,4.24554 0.66424,2.01268 2.70577,2.98207 4.60712,2.18764 z m 17.19792,0 c 3.68018,-1.53768 2.204,-6.96355 -1.75023,-6.43318 -1.9911,0.26706 -3.45295,2.43947 -2.85689,4.24554 0.66424,2.01268 2.70576,2.98207 4.60712,2.18764 z m 8.20208,0 c 3.68019,-1.53768 2.20401,-6.96355 -1.75023,-6.43318 -1.9911,0.26706 -3.45295,2.43947 -2.85689,4.24554 0.66424,2.01268 2.70577,2.98207 4.60712,2.18764 z m 8.73125,0 c 2.62992,-1.09885 2.76043,-4.93244 0.20915,-6.1431 -3.38821,-1.60781 -6.64206,2.85231 -3.93572,5.39477 1.15544,1.08549 2.34698,1.32476 3.72657,0.74833 z m 7.9375,0 c 3.68018,-1.53768 2.20401,-6.96355 -1.75023,-6.43318 -1.9911,0.26706 -3.45295,2.43947 -2.85689,4.24554 0.66424,2.01268 2.70577,2.98207 4.60712,2.18764 z m 16.93333,0 c 3.68019,-1.53768 2.20401,-6.96355 -1.75023,-6.43318 -1.99109,0.26706 -3.45295,2.43947 -2.85689,4.24554 0.66424,2.01268 2.70577,2.98207 4.60712,2.18764 z m 8.20209,0 c 3.68018,-1.53768 2.204,-6.96355 -1.75023,-6.43318 -1.9911,0.26706 -3.45295,2.43947 -2.8569,4.24554 0.66425,2.01268 2.70577,2.98207 4.60713,2.18764 z m 8.73125,0 c 2.62991,-1.09885 2.76043,-4.93244 0.20914,-6.1431 -3.38821,-1.60781 -6.64205,2.85231 -3.93572,5.39477 1.15545,1.08549 2.34698,1.32476 3.72658,0.74833 z m 7.9375,0 c 3.68018,-1.53768 2.204,-6.96355 -1.75023,-6.43318 -1.9911,0.26706 -3.45295,2.43947 -2.8569,4.24554 0.66425,2.01268 2.70577,2.98207 4.60713,2.18764 z m -109.00833,-8.73126 c 3.68018,-1.53767 2.204,-6.96354 -1.75023,-6.43317 -1.9911,0.26706 -3.45295,2.43947 -2.8569,4.24554 0.66425,2.01268 2.70577,2.98207 4.60713,2.18763 z m 8.20208,0 c 3.68018,-1.53767 2.204,-6.96354 -1.75023,-6.43317 -1.9911,0.26706 -3.45295,2.43947 -2.85689,4.24554 0.66424,2.01268 2.70577,2.98207 4.60712,2.18763 z m 8.20208,0 c 3.68019,-1.53767 2.20401,-6.96354 -1.75023,-6.43317 -1.9911,0.26706 -3.45295,2.43947 -2.85689,4.24554 0.66424,2.01268 2.70577,2.98207 4.60712,2.18763 z m 8.73125,0 c 3.68019,-1.53767 2.20401,-6.96354 -1.75023,-6.43317 -1.9911,0.26706 -3.45295,2.43947 -2.85689,4.24554 0.66424,2.01268 2.70577,2.98207 4.60712,2.18763 z m 8.46667,0 c 3.68018,-1.53767 2.204,-6.96354 -1.75023,-6.43317 -1.9911,0.26706 -3.45295,2.43947 -2.85689,4.24554 0.66424,2.01268 2.70576,2.98207 4.60712,2.18763 z m 8.73125,0 c 2.62991,-1.09884 2.76043,-4.93243 0.20915,-6.14309 -3.38821,-1.60781 -6.64206,2.85231 -3.93572,5.39477 1.15544,1.08549 2.34698,1.32476 3.72657,0.74832 z m 7.9375,0 c 3.68018,-1.53767 2.204,-6.96354 -1.75023,-6.43317 -1.9911,0.26706 -3.45295,2.43947 -2.85689,4.24554 0.66424,2.01268 2.70576,2.98207 4.60712,2.18763 z m 8.73125,0 c 3.68018,-1.53767 2.204,-6.96354 -1.75023,-6.43317 -1.9911,0.26706 -3.45295,2.43947 -2.8569,4.24554 0.66425,2.01268 2.70577,2.98207 4.60713,2.18763 z m 8.20208,0 c 3.68018,-1.53767 2.20401,-6.96354 -1.75023,-6.43317 -1.9911,0.26706 -3.45295,2.43947 -2.85689,4.24554 0.66424,2.01268 2.70577,2.98207 4.60712,2.18763 z m 8.46667,0 c 3.68018,-1.53767 2.204,-6.96354 -1.75023,-6.43317 -1.9911,0.26706 -3.45295,2.43947 -2.8569,4.24554 0.66425,2.01268 2.70577,2.98207 4.60713,2.18763 z m 8.46666,0 c 2.62992,-1.09884 2.76044,-4.93243 0.20915,-6.14309 -3.38821,-1.60781 -6.64205,2.85231 -3.93572,5.39477 1.15544,1.08549 2.34698,1.32476 3.72657,0.74832 z m 7.9375,0 c 3.68019,-1.53767 2.20401,-6.96354 -1.75023,-6.43317 -1.9911,0.26706 -3.45295,2.43947 -2.85689,4.24554 0.66424,2.01268 2.70577,2.98207 4.60712,2.18763 z m 8.73125,0 c 3.68019,-1.53767 2.20401,-6.96354 -1.75023,-6.43317 -1.9911,0.26706 -3.45295,2.43947 -2.85689,4.24554 0.66424,2.01268 2.70577,2.98207 4.60712,2.18763 z m 8.20209,0 c 3.68018,-1.53767 2.204,-6.96354 -1.75023,-6.43317 -1.9911,0.26706 -3.45295,2.43947 -2.8569,4.24554 0.66425,2.01268 2.70577,2.98207 4.60713,2.18763 z m 8.46666,0 c 3.68019,-1.53767 2.20401,-6.96354 -1.75023,-6.43317 -1.9911,0.26706 -3.45295,2.43947 -2.85689,4.24554 0.66424,2.01268 2.70577,2.98207 4.60712,2.18763 z m -117.47499,-8.20208 c 3.68018,-1.53768 2.204,-6.96355 -1.75023,-6.43317 -1.9911,0.26706 -3.45295,2.43947 -2.8569,4.24554 0.66425,2.01268 2.70577,2.98207 4.60713,2.18763 z m 8.20208,0 c 3.68018,-1.53768 2.204,-6.96355 -1.75023,-6.43317 -1.9911,0.26706 -3.45295,2.43947 -2.85689,4.24554 0.66424,2.01268 2.70577,2.98207 4.60712,2.18763 z m 8.20208,0 c 3.68019,-1.53768 2.20401,-6.96355 -1.75023,-6.43317 -1.9911,0.26706 -3.45295,2.43947 -2.85689,4.24554 0.66424,2.01268 2.70577,2.98207 4.60712,2.18763 z m 8.73125,0 c 3.68019,-1.53768 2.20401,-6.96355 -1.75023,-6.43317 -1.9911,0.26706 -3.45295,2.43947 -2.85689,4.24554 0.66424,2.01268 2.70577,2.98207 4.60712,2.18763 z m 8.46667,0 c 3.68018,-1.53768 2.204,-6.96355 -1.75023,-6.43317 -1.9911,0.26706 -3.45295,2.43947 -2.85689,4.24554 0.66424,2.01268 2.70576,2.98207 4.60712,2.18763 z m 8.73125,0 c 2.62991,-1.09885 2.76043,-4.93243 0.20915,-6.1431 -3.38821,-1.60781 -6.64206,2.85231 -3.93572,5.39478 1.15544,1.08548 2.34698,1.32475 3.72657,0.74832 z m 7.9375,0 c 3.68018,-1.53768 2.204,-6.96355 -1.75023,-6.43317 -1.9911,0.26706 -3.45295,2.43947 -2.85689,4.24554 0.66424,2.01268 2.70576,2.98207 4.60712,2.18763 z m 8.73125,0 c 3.68018,-1.53768 2.204,-6.96355 -1.75023,-6.43317 -1.9911,0.26706 -3.45295,2.43947 -2.8569,4.24554 0.66425,2.01268 2.70577,2.98207 4.60713,2.18763 z m 8.20208,0 c 3.68018,-1.53768 2.20401,-6.96355 -1.75023,-6.43317 -1.9911,0.26706 -3.45295,2.43947 -2.85689,4.24554 0.66424,2.01268 2.70577,2.98207 4.60712,2.18763 z m 8.46667,0 c 3.68018,-1.53768 2.204,-6.96355 -1.75023,-6.43317 -1.9911,0.26706 -3.45295,2.43947 -2.8569,4.24554 0.66425,2.01268 2.70577,2.98207 4.60713,2.18763 z m 8.46666,0 c 2.62992,-1.09885 2.76044,-4.93243 0.20915,-6.1431 -3.38821,-1.60781 -6.64205,2.85231 -3.93572,5.39478 1.15544,1.08548 2.34698,1.32475 3.72657,0.74832 z m 7.9375,0 c 3.68019,-1.53768 2.20401,-6.96355 -1.75023,-6.43317 -1.9911,0.26706 -3.45295,2.43947 -2.85689,4.24554 0.66424,2.01268 2.70577,2.98207 4.60712,2.18763 z m 8.73125,0 c 3.68019,-1.53768 2.20401,-6.96355 -1.75023,-6.43317 -1.9911,0.26706 -3.45295,2.43947 -2.85689,4.24554 0.66424,2.01268 2.70577,2.98207 4.60712,2.18763 z m 8.20209,0 c 3.68018,-1.53768 2.204,-6.96355 -1.75023,-6.43317 -1.9911,0.26706 -3.45295,2.43947 -2.8569,4.24554 0.66425,2.01268 2.70577,2.98207 4.60713,2.18763 z m -109.00833,-7.9375 c 3.68018,-1.53768 2.204,-6.96355 -1.75023,-6.43317 -1.9911,0.26706 -3.45295,2.43947 -2.8569,4.24554 0.66425,2.01268 2.70577,2.98207 4.60713,2.18763 z m 8.20208,0 c 3.68018,-1.53768 2.204,-6.96355 -1.75023,-6.43317 -1.9911,0.26706 -3.45295,2.43947 -2.85689,4.24554 0.66424,2.01268 2.70577,2.98207 4.60712,2.18763 z m 8.20208,0 c 3.68019,-1.53768 2.20401,-6.96355 -1.75023,-6.43317 -1.9911,0.26706 -3.45295,2.43947 -2.85689,4.24554 0.66424,2.01268 2.70577,2.98207 4.60712,2.18763 z m 8.73125,0 c 3.68019,-1.53768 2.20401,-6.96355 -1.75023,-6.43317 -1.9911,0.26706 -3.45295,2.43947 -2.85689,4.24554 0.66424,2.01268 2.70577,2.98207 4.60712,2.18763 z m 8.46667,0 c 3.68018,-1.53768 2.204,-6.96355 -1.75023,-6.43317 -1.9911,0.26706 -3.45295,2.43947 -2.85689,4.24554 0.66424,2.01268 2.70576,2.98207 4.60712,2.18763 z m 8.73125,0 c 2.62991,-1.09885 2.76043,-4.93243 0.20915,-6.1431 -3.38821,-1.60781 -6.64206,2.85231 -3.93572,5.39478 1.15544,1.08548 2.34698,1.32475 3.72657,0.74832 z m 7.9375,0 c 3.68018,-1.53768 2.204,-6.96355 -1.75023,-6.43317 -1.9911,0.26706 -3.45295,2.43947 -2.85689,4.24554 0.66424,2.01268 2.70576,2.98207 4.60712,2.18763 z m 8.73125,0 c 3.68018,-1.53768 2.204,-6.96355 -1.75023,-6.43317 -1.9911,0.26706 -3.45295,2.43947 -2.8569,4.24554 0.66425,2.01268 2.70577,2.98207 4.60713,2.18763 z m 8.20208,0 c 3.68018,-1.53768 2.20401,-6.96355 -1.75023,-6.43317 -1.9911,0.26706 -3.45295,2.43947 -2.85689,4.24554 0.66424,2.01268 2.70577,2.98207 4.60712,2.18763 z m 8.46667,0 c 3.68018,-1.53768 2.204,-6.96355 -1.75023,-6.43317 -1.9911,0.26706 -3.45295,2.43947 -2.8569,4.24554 0.66425,2.01268 2.70577,2.98207 4.60713,2.18763 z m 8.46666,0 c 2.62992,-1.09885 2.76044,-4.93243 0.20915,-6.1431 -3.38821,-1.60781 -6.64205,2.85231 -3.93572,5.39478 1.15544,1.08548 2.34698,1.32475 3.72657,0.74832 z m 7.9375,0 c 3.68019,-1.53768 2.20401,-6.96355 -1.75023,-6.43317 -1.9911,0.26706 -3.45295,2.43947 -2.85689,4.24554 0.66424,2.01268 2.70577,2.98207 4.60712,2.18763 z m 8.73125,0 c 3.68019,-1.53768 2.20401,-6.96355 -1.75023,-6.43317 -1.9911,0.26706 -3.45295,2.43947 -2.85689,4.24554 0.66424,2.01268 2.70577,2.98207 4.60712,2.18763 z m 8.20209,0 c 3.68018,-1.53768 2.204,-6.96355 -1.75023,-6.43317 -1.9911,0.26706 -3.45295,2.43947 -2.8569,4.24554 0.66425,2.01268 2.70577,2.98207 4.60713,2.18763 z m -109.00833,-8.20208 c 3.68018,-1.53768 2.204,-6.96355 -1.75023,-6.43318 -1.9911,0.26706 -3.45295,2.43947 -2.8569,4.24554 0.66425,2.01268 2.70577,2.98207 4.60713,2.18764 z m 8.20208,0 c 3.68018,-1.53768 2.204,-6.96355 -1.75023,-6.43318 -1.9911,0.26706 -3.45295,2.43947 -2.85689,4.24554 0.66424,2.01268 2.70577,2.98207 4.60712,2.18764 z m 8.20208,0 c 3.68019,-1.53768 2.20401,-6.96355 -1.75023,-6.43318 -1.9911,0.26706 -3.45295,2.43947 -2.85689,4.24554 0.66424,2.01268 2.70577,2.98207 4.60712,2.18764 z m 8.73125,0 c 3.68019,-1.53768 2.20401,-6.96355 -1.75023,-6.43318 -1.9911,0.26706 -3.45295,2.43947 -2.85689,4.24554 0.66424,2.01268 2.70577,2.98207 4.60712,2.18764 z m 8.46667,0 c 3.68018,-1.53768 2.204,-6.96355 -1.75023,-6.43318 -1.9911,0.26706 -3.45295,2.43947 -2.85689,4.24554 0.66424,2.01268 2.70576,2.98207 4.60712,2.18764 z m 8.73125,0 c 2.62991,-1.09885 2.76043,-4.93244 0.20915,-6.1431 -3.38821,-1.60781 -6.64206,2.85231 -3.93572,5.39478 1.15544,1.08548 2.34698,1.32475 3.72657,0.74832 z m 7.9375,0 c 3.68018,-1.53768 2.204,-6.96355 -1.75023,-6.43318 -1.9911,0.26706 -3.45295,2.43947 -2.85689,4.24554 0.66424,2.01268 2.70576,2.98207 4.60712,2.18764 z m 8.73125,0 c 3.68018,-1.53768 2.204,-6.96355 -1.75023,-6.43318 -1.9911,0.26706 -3.45295,2.43947 -2.8569,4.24554 0.66425,2.01268 2.70577,2.98207 4.60713,2.18764 z m 8.20208,0 c 3.68018,-1.53768 2.20401,-6.96355 -1.75023,-6.43318 -1.9911,0.26706 -3.45295,2.43947 -2.85689,4.24554 0.66424,2.01268 2.70577,2.98207 4.60712,2.18764 z m 8.46667,0 c 3.68018,-1.53768 2.204,-6.96355 -1.75023,-6.43318 -1.9911,0.26706 -3.45295,2.43947 -2.8569,4.24554 0.66425,2.01268 2.70577,2.98207 4.60713,2.18764 z m 8.46666,0 c 2.62992,-1.09885 2.76044,-4.93244 0.20915,-6.1431 -3.38821,-1.60781 -6.64205,2.85231 -3.93572,5.39478 1.15544,1.08548 2.34698,1.32475 3.72657,0.74832 z m 7.9375,0 c 3.68019,-1.53768 2.20401,-6.96355 -1.75023,-6.43318 -1.9911,0.26706 -3.45295,2.43947 -2.85689,4.24554 0.66424,2.01268 2.70577,2.98207 4.60712,2.18764 z m 8.73125,0 c 3.68019,-1.53768 2.20401,-6.96355 -1.75023,-6.43318 -1.9911,0.26706 -3.45295,2.43947 -2.85689,4.24554 0.66424,2.01268 2.70577,2.98207 4.60712,2.18764 z m 8.20209,0 c 3.68018,-1.53768 2.204,-6.96355 -1.75023,-6.43318 -1.9911,0.26706 -3.45295,2.43947 -2.8569,4.24554 0.66425,2.01268 2.70577,2.98207 4.60713,2.18764 z M 264.14041,147.8706 c 3.68018,-1.53768 2.204,-6.96355 -1.75023,-6.43317 -1.9911,0.26706 -3.45295,2.43947 -2.8569,4.24554 0.66425,2.01268 2.70577,2.98207 4.60713,2.18763 z m 8.20208,0 c 3.68018,-1.53768 2.204,-6.96355 -1.75023,-6.43317 -1.9911,0.26706 -3.45295,2.43947 -2.85689,4.24554 0.66424,2.01268 2.70577,2.98207 4.60712,2.18763 z m 8.20208,0 c 3.68019,-1.53768 2.20401,-6.96355 -1.75023,-6.43317 -1.9911,0.26706 -3.45295,2.43947 -2.85689,4.24554 0.66424,2.01268 2.70577,2.98207 4.60712,2.18763 z m 8.73125,0 c 3.68019,-1.53768 2.20401,-6.96355 -1.75023,-6.43317 -1.9911,0.26706 -3.45295,2.43947 -2.85689,4.24554 0.66424,2.01268 2.70577,2.98207 4.60712,2.18763 z m 8.46667,0 c 3.68018,-1.53768 2.204,-6.96355 -1.75023,-6.43317 -1.9911,0.26706 -3.45295,2.43947 -2.85689,4.24554 0.66424,2.01268 2.70576,2.98207 4.60712,2.18763 z m 8.73125,0 c 2.62991,-1.09884 2.76043,-4.93243 0.20915,-6.1431 -3.38821,-1.60781 -6.64206,2.85231 -3.93572,5.39478 1.15544,1.08549 2.34698,1.32475 3.72657,0.74832 z m 7.9375,0 c 3.68018,-1.53768 2.204,-6.96355 -1.75023,-6.43317 -1.9911,0.26706 -3.45295,2.43947 -2.85689,4.24554 0.66424,2.01268 2.70576,2.98207 4.60712,2.18763 z m 8.73125,0 c 3.68018,-1.53768 2.204,-6.96355 -1.75023,-6.43317 -1.9911,0.26706 -3.45295,2.43947 -2.8569,4.24554 0.66425,2.01268 2.70577,2.98207 4.60713,2.18763 z m 8.20208,0 c 3.68018,-1.53768 2.20401,-6.96355 -1.75023,-6.43317 -1.9911,0.26706 -3.45295,2.43947 -2.85689,4.24554 0.66424,2.01268 2.70577,2.98207 4.60712,2.18763 z m 8.46667,0 c 3.68018,-1.53768 2.204,-6.96355 -1.75023,-6.43317 -1.9911,0.26706 -3.45295,2.43947 -2.8569,4.24554 0.66425,2.01268 2.70577,2.98207 4.60713,2.18763 z m 8.46666,0 c 2.62992,-1.09884 2.76044,-4.93243 0.20915,-6.1431 -3.38821,-1.60781 -6.64205,2.85231 -3.93572,5.39478 1.15544,1.08549 2.34698,1.32475 3.72657,0.74832 z m 7.9375,0 c 3.68019,-1.53768 2.20401,-6.96355 -1.75023,-6.43317 -1.9911,0.26706 -3.45295,2.43947 -2.85689,4.24554 0.66424,2.01268 2.70577,2.98207 4.60712,2.18763 z m 8.73125,0 c 3.68019,-1.53768 2.20401,-6.96355 -1.75023,-6.43317 -1.9911,0.26706 -3.45295,2.43947 -2.85689,4.24554 0.66424,2.01268 2.70577,2.98207 4.60712,2.18763 z m 8.20209,0 c 3.68018,-1.53768 2.204,-6.96355 -1.75023,-6.43317 -1.9911,0.26706 -3.45295,2.43947 -2.8569,4.24554 0.66425,2.01268 2.70577,2.98207 4.60713,2.18763 z m -31.1261,-7.43797 c 0.22969,-0.0799 0.34469,-1.20823 0.39688,-3.89391 l 0.0735,-3.78143 3.83645,-0.13229 3.83646,-0.13229 v -11.77396 -11.77396 l -4.42508,-0.0725 -4.42509,-0.0725 -0.0728,-4.16082 -0.0728,-4.16082 -7.87814,-0.0701 c -6.44131,-0.0573 -7.9033,-0.005 -8.01604,0.28925 -0.0758,0.19764 -0.16208,2.07465 -0.19165,4.17114 l -0.0537,3.81179 -3.83646,0.13229 -3.83646,0.13229 -0.16669,2.11667 c -0.0917,1.16416 -0.0654,3.60495 0.0584,5.42396 0.12382,1.81901 0.2286,3.39239 0.23284,3.4964 0.004,0.10402 2.77593,0.23518 6.15928,0.29148 6.82138,0.1135 7.87136,0.24751 7.87136,1.00465 0,0.32114 -0.1869,0.49913 -0.52413,0.49913 -0.74907,0 -0.82735,0.59897 -0.74195,5.67687 l 0.0754,4.48624 0.66146,0.15589 c 1.98165,0.46705 0.74011,1.1883 -2.17827,1.26543 -2.36531,0.0625 -2.8796,0.15092 -3.07839,0.52917 -0.39233,0.74651 -0.55794,2.98629 -0.35637,4.81974 l 0.18907,1.71979 2.11667,0.13229 c 2.37425,0.14839 13.8448,0.0445 14.34631,-0.12987 z m -77.88223,-0.49953 c 3.68018,-1.53768 2.204,-6.96355 -1.75023,-6.43317 -1.9911,0.26706 -3.45295,2.43947 -2.8569,4.24554 0.66425,2.01268 2.70577,2.98207 4.60713,2.18763 z m 8.20208,0 c 3.68018,-1.53768 2.204,-6.96355 -1.75023,-6.43317 -1.9911,0.26706 -3.45295,2.43947 -2.85689,4.24554 0.66424,2.01268 2.70577,2.98207 4.60712,2.18763 z m 25.66458,0 c 3.68019,-1.53768 2.20401,-6.96355 -1.75023,-6.43317 -1.9911,0.26706 -3.45295,2.43947 -2.85689,4.24554 0.66424,2.01268 2.70577,2.98207 4.60712,2.18763 z m 8.20209,0 c 3.68018,-1.53768 2.204,-6.96355 -1.75023,-6.43317 -1.9911,0.26706 -3.45295,2.43947 -2.8569,4.24554 0.66425,2.01268 2.70577,2.98207 4.60713,2.18763 z m 8.20208,0 c 3.68018,-1.53768 2.204,-6.96355 -1.75023,-6.43317 -1.9911,0.26706 -3.45295,2.43947 -2.85689,4.24554 0.66424,2.01268 2.70576,2.98207 4.60712,2.18763 z m 8.20208,0 c 3.68019,-1.53768 2.20401,-6.96355 -1.75023,-6.43317 -1.9911,0.26706 -3.45295,2.43947 -2.85689,4.24554 0.66424,2.01268 2.70577,2.98207 4.60712,2.18763 z m 25.4,0 c 3.68018,-1.53768 2.204,-6.96355 -1.75023,-6.43317 -1.9911,0.26706 -3.45295,2.43947 -2.85689,4.24554 0.66424,2.01268 2.70577,2.98207 4.60712,2.18763 z m 8.20208,0 c 3.68019,-1.53768 2.20401,-6.96355 -1.75023,-6.43317 -1.9911,0.26706 -3.45295,2.43947 -2.85689,4.24554 0.66424,2.01268 2.70577,2.98207 4.60712,2.18763 z m 8.46667,0 c 3.68018,-1.53768 2.204,-6.96355 -1.75023,-6.43317 -1.9911,0.26706 -3.45295,2.43947 -2.85689,4.24554 0.66424,2.01268 2.70576,2.98207 4.60712,2.18763 z m 8.20208,0 c 3.68019,-1.53768 2.20401,-6.96355 -1.75023,-6.43317 -1.9911,0.26706 -3.45295,2.43947 -2.85689,4.24554 0.66424,2.01268 2.70577,2.98207 4.60712,2.18763 z m -108.74374,-7.9375 c 3.68018,-1.53768 2.204,-6.96355 -1.75023,-6.43317 -1.9911,0.26706 -3.45295,2.43947 -2.8569,4.24554 0.66425,2.01268 2.70577,2.98207 4.60713,2.18763 z m 42.06875,-0.26458 c 3.68018,-1.53768 2.204,-6.96355 -1.75023,-6.43318 -1.9911,0.26707 -3.45295,2.43948 -2.8569,4.24554 0.66425,2.01268 2.70577,2.98208 4.60713,2.18764 z m 8.20208,0 c 3.68018,-1.53768 2.204,-6.96355 -1.75023,-6.43318 -1.9911,0.26707 -3.45295,2.43948 -2.85689,4.24554 0.66424,2.01268 2.70576,2.98208 4.60712,2.18764 z m 41.53958,0 c 3.68018,-1.53768 2.204,-6.96355 -1.75023,-6.43318 -1.9911,0.26707 -3.45295,2.43948 -2.85689,4.24554 0.66424,2.01268 2.70576,2.98208 4.60712,2.18764 z m 8.20208,0 c 3.68019,-1.53768 2.20401,-6.96355 -1.75023,-6.43318 -1.9911,0.26707 -3.45295,2.43948 -2.85689,4.24554 0.66424,2.01268 2.70577,2.98208 4.60712,2.18764 z m 8.73125,0 c 3.68019,-1.53768 2.20401,-6.96355 -1.75023,-6.43318 -1.9911,0.26707 -3.45295,2.43948 -2.85689,4.24554 0.66424,2.01268 2.70577,2.98208 4.60712,2.18764 z m -66.67499,-7.9375 c 3.68018,-1.53768 2.204,-6.96355 -1.75023,-6.43318 -1.9911,0.26707 -3.45295,2.43948 -2.8569,4.24554 0.66425,2.01268 2.70577,2.98208 4.60713,2.18764 z m 8.20208,0 c 3.68018,-1.53768 2.204,-6.96355 -1.75023,-6.43318 -1.9911,0.26707 -3.45295,2.43948 -2.85689,4.24554 0.66424,2.01268 2.70576,2.98208 4.60712,2.18764 z m 41.53958,0 c 3.68018,-1.53768 2.204,-6.96355 -1.75023,-6.43318 -1.9911,0.26707 -3.45295,2.43948 -2.85689,4.24554 0.66424,2.01268 2.70576,2.98208 4.60712,2.18764 z m 8.20208,0 c 3.68019,-1.53768 2.20401,-6.96355 -1.75023,-6.43318 -1.9911,0.26707 -3.45295,2.43948 -2.85689,4.24554 0.66424,2.01268 2.70577,2.98208 4.60712,2.18764 z m -57.94374,-7.9375 c 3.68018,-1.53768 2.204,-6.96355 -1.75023,-6.43318 -1.9911,0.26707 -3.45295,2.43948 -2.8569,4.24554 0.66425,2.01268 2.70577,2.98208 4.60713,2.18764 z m 8.20208,0 c 3.68018,-1.53768 2.204,-6.96355 -1.75023,-6.43318 -1.9911,0.26707 -3.45295,2.43948 -2.85689,4.24554 0.66424,2.01268 2.70576,2.98208 4.60712,2.18764 z m 41.53958,0 c 3.68018,-1.53768 2.204,-6.96355 -1.75023,-6.43318 -1.9911,0.26707 -3.45295,2.43948 -2.85689,4.24554 0.66424,2.01268 2.70576,2.98208 4.60712,2.18764 z m 8.20208,0 c 3.68019,-1.53768 2.20401,-6.96355 -1.75023,-6.43318 -1.9911,0.26707 -3.45295,2.43948 -2.85689,4.24554 0.66424,2.01268 2.70577,2.98208 4.60712,2.18764 z m -90.75208,-7.9375 c 3.68019,-1.53768 2.20401,-6.96355 -1.75023,-6.43318 -1.99109,0.26707 -3.45295,2.43948 -2.85689,4.24554 0.66424,2.01268 2.70577,2.98208 4.60712,2.18764 z m 24.34167,-0.26458 c 3.68018,-1.53768 2.204,-6.96355 -1.75023,-6.43318 -1.9911,0.26706 -3.45295,2.43947 -2.85689,4.24554 0.66424,2.01268 2.70576,2.98207 4.60712,2.18764 z m 8.20208,0 c 3.68019,-1.53768 2.20401,-6.96355 -1.75023,-6.43318 -1.9911,0.26706 -3.45295,2.43947 -2.85689,4.24554 0.66424,2.01268 2.70577,2.98207 4.60712,2.18764 z m 8.20208,0 c 3.68019,-1.53768 2.20401,-6.96355 -1.75022,-6.43318 -1.9911,0.26706 -3.45295,2.43947 -2.8569,4.24554 0.66425,2.01268 2.70577,2.98207 4.60712,2.18764 z m 8.20209,0 c 3.68018,-1.53768 2.204,-6.96355 -1.75023,-6.43318 -1.9911,0.26706 -3.45295,2.43947 -2.8569,4.24554 0.66425,2.01268 2.70577,2.98207 4.60713,2.18764 z m 24.60625,0 c 3.68018,-1.53768 2.204,-6.96355 -1.75023,-6.43318 -1.9911,0.26706 -3.45295,2.43947 -2.8569,4.24554 0.66425,2.01268 2.70577,2.98207 4.60713,2.18764 z m 8.20208,0 c 3.68018,-1.53768 2.204,-6.96355 -1.75023,-6.43318 -1.9911,0.26706 -3.45295,2.43947 -2.85689,4.24554 0.66424,2.01268 2.70576,2.98207 4.60712,2.18764 z m -65.61666,-8.202088 c 1.91529,-0.800259 2.65136,-2.679813 1.76585,-4.509048 -1.02675,-2.12097 -3.67134,-2.641347 -5.333,-1.049376 -2.74899,2.633696 0.0666,7.021042 3.56715,5.558424 z m 8.20208,0 c 3.68018,-1.537679 2.204,-6.963549 -1.75023,-6.433175 -1.9911,0.267062 -3.45295,2.439473 -2.85689,4.245539 0.66424,2.012681 2.70576,2.982074 4.60712,2.187636 z m 8.46667,0 c 3.68018,-1.537679 2.204,-6.963549 -1.75023,-6.433175 -1.9911,0.267062 -3.45295,2.439473 -2.8569,4.245539 0.66425,2.012681 2.70577,2.982074 4.60713,2.187636 z m 8.20208,0 c 3.68018,-1.537679 2.204,-6.963549 -1.75023,-6.433175 -1.9911,0.267062 -3.45295,2.439473 -2.85689,4.245539 0.66424,2.012681 2.70576,2.982074 4.60712,2.187636 z m 8.20208,-0.264583 c 3.68019,-1.537679 2.20401,-6.96355 -1.75023,-6.433175 -1.9911,0.267062 -3.45295,2.439472 -2.85689,4.245539 0.66424,2.01268 2.70577,2.982073 4.60712,2.187636 z m 8.20208,0 c 2.62992,-1.098849 2.76044,-4.932435 0.20915,-6.1431 -3.38821,-1.60781 -6.64205,2.85231 -3.93572,5.39478 1.15544,1.085482 2.34698,1.32475 3.72657,0.74832 z m 7.9375,0 c 3.68019,-1.537679 2.20401,-6.96355 -1.75023,-6.433175 -1.99109,0.267062 -3.45294,2.439472 -2.85689,4.245539 0.66425,2.01268 2.70577,2.982073 4.60712,2.187636 z m 8.20209,0 c 3.68018,-1.537679 2.204,-6.96355 -1.75023,-6.433175 -1.9911,0.267062 -3.45295,2.439472 -2.8569,4.245539 0.66425,2.01268 2.70577,2.982073 4.60713,2.187636 z m 8.20208,0 c 2.7077,-1.131348 2.86214,-4.884173 0.25197,-6.122778 -2.95426,-1.401887 -6.38576,1.850587 -4.6685,4.424936 1.20547,1.80712 2.74162,2.397663 4.41653,1.697842 z m -65.61666,-7.672917 c 3.68018,-1.537679 2.204,-6.96355 -1.75023,-6.433175 -1.9911,0.267062 -3.45295,2.439472 -2.8569,4.245539 0.66425,2.01268 2.70577,2.982073 4.60713,2.187636 z m 8.20208,0 c 3.68018,-1.537679 2.204,-6.96355 -1.75023,-6.433175 -1.9911,0.267062 -3.45295,2.439472 -2.85689,4.245539 0.66424,2.01268 2.70576,2.982073 4.60712,2.187636 z m 8.46667,-0.264583 c 3.68018,-1.537679 2.204,-6.96355 -1.75023,-6.433176 -1.9911,0.267063 -3.45295,2.439473 -2.8569,4.24554 0.66425,2.01268 2.70577,2.982073 4.60713,2.187636 z m 8.20208,0 c 3.68018,-1.537679 2.204,-6.96355 -1.75023,-6.433176 -1.9911,0.267063 -3.45295,2.439473 -2.85689,4.24554 0.66424,2.01268 2.70576,2.982073 4.60712,2.187636 z m 8.20208,0 c 3.68019,-1.537679 2.20401,-6.96355 -1.75023,-6.433176 -1.9911,0.267063 -3.45295,2.439473 -2.85689,4.24554 0.66424,2.01268 2.70577,2.982073 4.60712,2.187636 z m 8.20208,0 c 2.62992,-1.098849 2.76044,-4.932436 0.20915,-6.1431 -3.38821,-1.60781 -6.64205,2.85231 -3.93572,5.394779 1.15544,1.085482 2.34698,1.324751 3.72657,0.748321 z m 7.9375,0 c 3.68019,-1.537679 2.20401,-6.96355 -1.75023,-6.433176 -1.99109,0.267063 -3.45294,2.439473 -2.85689,4.24554 0.66425,2.01268 2.70577,2.982073 4.60712,2.187636 z m 8.20209,0 c 3.68018,-1.537679 2.204,-6.96355 -1.75023,-6.433176 -1.9911,0.267063 -3.45295,2.439473 -2.8569,4.24554 0.66425,2.01268 2.70577,2.982073 4.60713,2.187636 z m -40.74583,-7.937501 c 3.68018,-1.537679 2.204,-6.963549 -1.75023,-6.433175 -1.9911,0.267062 -3.45295,2.439473 -2.8569,4.24554 0.66425,2.01268 2.70577,2.982072 4.60713,2.187635 z m 8.20208,0 c 3.68018,-1.537679 2.204,-6.963549 -1.75023,-6.433175 -1.9911,0.267062 -3.45295,2.439473 -2.85689,4.24554 0.66424,2.01268 2.70576,2.982072 4.60712,2.187635 z m 8.20208,0 c 3.68019,-1.537679 2.20401,-6.963549 -1.75023,-6.433175 -1.9911,0.267062 -3.45295,2.439473 -2.85689,4.24554 0.66424,2.01268 2.70577,2.982072 4.60712,2.187635 z m 8.20208,0 c 3.68019,-1.537679 2.20401,-6.963549 -1.75023,-6.433175 -1.99109,0.267062 -3.45294,2.439473 -2.85689,4.24554 0.66425,2.01268 2.70577,2.982072 4.60712,2.187635 z m -479.46842,93.180652 c -0.46133,-0.46132 -0.46133,-71.39952 0,-71.86084 0.4605,-0.4605 52.085739,-0.4605 52.546244,0 0.461321,0.46132 0.461321,71.39952 0,71.86084 -0.460505,0.4605 -52.085744,0.4605 -52.546244,0 z m 17.24136,-50.31815 c 3.68019,-1.53768 2.20401,-6.96355 -1.75023,-6.43318 -1.9911,0.26707 -3.45295,2.43948 -2.85689,4.24554 0.66424,2.01268 2.70577,2.98208 4.60712,2.18764 z M -50.492612,168.82 c -0.235833,-0.23583 -0.3175,-2.91042 -0.3175,-10.39812 0,-7.48771 0.08167,-10.1623 0.3175,-10.39813 0.455754,-0.45575 20.340496,-0.45575 20.796249,0 0.455754,0.45575 0.455754,20.3405 0,20.79625 -0.455753,0.45575 -20.340495,0.45575 -20.796249,0 z m 17.236548,-3.88208 c 1.164295,-0.96611 0.332579,-2.7813 -1.409222,-3.07558 -1.240221,-0.20953 -1.300832,-0.43628 -0.402118,-1.50434 0.639002,-0.75941 0.661458,-0.91635 0.661458,-4.62261 v -3.83651 l -0.773397,-0.7734 -0.773398,-0.7734 h -3.939601 -3.939601 l -0.777105,0.81113 -0.777106,0.81112 v 3.75294 c 0,4.00523 0.369031,5.17631 1.771423,5.62141 0.81336,0.25815 0.249315,0.64507 -0.940371,0.64507 -1.532324,0 -2.759472,2.3728 -1.426364,2.75801 2.32276,0.67116 11.970807,0.8123 12.725402,0.18616 z M 1.4645804,121.09731 C 0.96059967,120.59333 0.96922226,120.97587 1.0445385,102.4625 1.0864791,92.153154 1.1846587,88.254477 1.4059013,88.112904 2.0095419,87.726635 118.69161,87.872591 119.01315,88.260017 c 0.35399,0.42653 0.44416,31.101063 0.095,32.326443 l -0.22616,0.79375 -58.500538,0.0667 c -52.9214215,0.0604 -58.5402482,0.027 -58.9169016,-0.34963 z"
       id="path46" /></g></svg>
